<svg width="150px" height="43px" viewBox="0 0 150 43" version="1.1" xmlns="http://www.w3.org/2000/svg"><g stroke="none" stroke-width="1" fill="none" fill-rule="evenodd"><g><g><g><path d="M149.178711,38.5187675 C149.178711,40.8896359 147.258263,42.810084 144.882913,42.810084 L4.30140056,42.810084 C1.92717087,42.810084 0,40.8896359 0,38.5187675 L0,4.29691877 C0,1.92717087 1.92717087,0 4.30140056,0 L144.881793,0 C147.258263,0 149.177591,1.92717087 149.177591,4.29691877 L149.178711,38.5187675 L149.178711,38.5187675 L149.178711,38.5187675 Z" fill="#EDEDED"></path><g transform="translate(12.184874, 5.462185)" fill="#8A8A8A"><path d="M20.3114846,15.4442577 C20.2789916,11.8330532 23.2683473,10.0761905 23.405042,9.99439776 C21.7120448,7.52605042 19.0879552,7.18879552 18.1658263,7.16190476 C15.9619048,6.92997199 13.8240896,8.48067227 12.7014006,8.48067227 C11.5563025,8.48067227 9.82745098,7.18431373 7.96414566,7.22240896 C5.56638655,7.25938375 3.3232493,8.64761905 2.0929972,10.8033613 C-0.445938375,15.1988796 1.44761905,21.6582633 3.88011204,25.2112045 C5.09691877,26.952381 6.51876751,28.8941176 8.37983193,28.8257703 C10.2005602,28.7518207 10.8806723,27.6661064 13.0778711,27.6661064 C15.254902,27.6661064 15.8935574,28.8257703 17.7915966,28.7820728 C19.7456583,28.7518207 20.9759104,27.0341737 22.1501401,25.2784314 C23.5563025,23.2851541 24.1210084,21.319888 24.1434174,21.2190476 C24.097479,21.2033613 20.3484594,19.7714286 20.3114846,15.4442577 L20.3114846,15.4442577 Z"></path><path d="M16.7260504,4.82464986 C17.7053221,3.6 18.3753501,1.93389356 18.1893557,0.243137255 C16.7719888,0.305882353 14.9994398,1.22352941 13.9787115,2.42128852 C13.0756303,3.4767507 12.2689076,5.20672269 12.4773109,6.83361345 C14.0694678,6.95238095 15.7042017,6.0302521 16.7260504,4.82464986 L16.7260504,4.82464986 Z"></path></g><g transform="translate(45.798319, 18.907563)" fill="#898989" id="Shape"><path d="M13.047619,15.1305322 L10.5030812,15.1305322 L9.1092437,10.7507003 L4.26442577,10.7507003 L2.93669468,15.1305322 L0.459383754,15.1305322 L5.25938375,0.219607843 L8.22408964,0.219607843 L13.047619,15.1305322 L13.047619,15.1305322 Z M8.68907563,8.91316527 L7.42857143,5.01960784 C7.2952381,4.62184874 7.04537815,3.68515406 6.6767507,2.21064426 L6.63193277,2.21064426 C6.48515406,2.84481793 6.2487395,3.78151261 5.92380952,5.01960784 L4.68571429,8.91316527 L8.68907563,8.91316527 L8.68907563,8.91316527 Z"></path><path d="M25.3915966,9.62240896 C25.3915966,11.4509804 24.897479,12.8963585 23.9092437,13.957423 C23.0240896,14.9019608 21.92493,15.3736695 20.6128852,15.3736695 C19.1966387,15.3736695 18.1792717,14.8661064 17.5596639,13.8487395 L17.5148459,13.8487395 L17.5148459,19.512605 L15.1260504,19.512605 L15.1260504,7.91708683 C15.1260504,6.76862745 15.0957983,5.58879552 15.037535,4.37871148 L17.1383754,4.37871148 L17.2717087,6.08291317 L17.3165266,6.08291317 C18.1131653,4.79887955 19.3221289,4.15686275 20.9445378,4.15686275 C22.2128852,4.15686275 23.2717087,4.65770308 24.1187675,5.6605042 C24.9680672,6.66554622 25.3915966,7.98543417 25.3915966,9.62240896 L25.3915966,9.62240896 Z M22.9579832,9.70980392 C22.9579832,8.66330532 22.7226891,7.80056022 22.2498599,7.12044818 C21.7333333,6.41344538 21.0397759,6.05938375 20.1703081,6.05938375 C19.5809524,6.05938375 19.0453782,6.25658263 18.5669468,6.64537815 C18.087395,7.03753501 17.7736695,7.54957983 17.6268908,8.1837535 C17.5529412,8.47955182 17.5159664,8.72044818 17.5159664,8.91092437 L17.5159664,10.7047619 C17.5159664,11.4857143 17.7557423,12.1456583 18.2352941,12.6857143 C18.7148459,13.2235294 19.3378151,13.4935574 20.1042017,13.4935574 C21.0039216,13.4935574 21.7042017,13.145098 22.205042,12.4537815 C22.7070028,11.7602241 22.9579832,10.8459384 22.9579832,9.70980392 L22.9579832,9.70980392 Z"></path><path d="M37.7579832,9.62240896 C37.7579832,11.4509804 37.2638655,12.8963585 36.2745098,13.957423 C35.3904762,14.9019608 34.2913165,15.3736695 32.9792717,15.3736695 C31.5630252,15.3736695 30.5456583,14.8661064 29.9271709,13.8487395 L29.8823529,13.8487395 L29.8823529,19.512605 L27.4935574,19.512605 L27.4935574,7.91708683 C27.4935574,6.76862745 27.4633053,5.58879552 27.405042,4.37871148 L29.5058824,4.37871148 L29.6392157,6.08291317 L29.6840336,6.08291317 C30.4795518,4.79887955 31.6885154,4.15686275 33.3109244,4.15686275 C34.5781513,4.15686275 35.6369748,4.65770308 36.4862745,5.6605042 C37.3333333,6.66554622 37.7579832,7.98543417 37.7579832,9.62240896 L37.7579832,9.62240896 Z M35.3243697,9.70980392 C35.3243697,8.66330532 35.0879552,7.80056022 34.6151261,7.12044818 C34.0985994,6.41344538 33.4072829,6.05938375 32.5366947,6.05938375 C31.9462185,6.05938375 31.4117647,6.25658263 30.9322129,6.64537815 C30.4526611,7.03753501 30.140056,7.54957983 29.9932773,8.1837535 C29.9204482,8.47955182 29.8812325,8.72044818 29.8812325,8.91092437 L29.8812325,10.7047619 C29.8812325,11.4857143 30.1210084,12.1456583 30.5994398,12.6857143 C31.0789916,13.222409 31.7008403,13.4935574 32.4705882,13.4935574 C33.3703081,13.4935574 34.0705882,13.145098 34.5714286,12.4537815 C35.0733894,11.7602241 35.3243697,10.8459384 35.3243697,9.70980392 L35.3243697,9.70980392 Z"></path><path d="M51.5843137,10.9478992 C51.5843137,12.2173669 51.1439776,13.2492997 50.259944,14.0459384 C49.2885154,14.9154062 47.9361345,15.3512605 46.1983193,15.3512605 C44.5927171,15.3512605 43.307563,15.0420168 42.3338936,14.422409 L42.887395,12.4313725 C43.9361345,13.0655462 45.0868347,13.3848739 46.3406162,13.3848739 C47.2403361,13.3848739 47.9406162,13.1809524 48.4436975,12.7742297 C48.9445378,12.3697479 49.1943978,11.8240896 49.1943978,11.1462185 C49.1943978,10.5411765 48.9882353,10.0313725 48.5747899,9.61792717 C48.1635854,9.20448179 47.4767507,8.82016807 46.5176471,8.46610644 C43.9070028,7.49243697 42.6028011,6.06498599 42.6028011,4.19047619 C42.6028011,2.96470588 43.059944,1.95966387 43.9753501,1.17759104 C44.887395,0.394397759 46.1042017,0.00336134454 47.6257703,0.00336134454 C48.9826331,0.00336134454 50.1098039,0.23977591 51.0095238,0.711484594 L50.4134454,2.65882353 C49.5731092,2.20168067 48.6218487,1.97310924 47.5585434,1.97310924 C46.7182073,1.97310924 46.0616246,2.18039216 45.5910364,2.59271709 C45.1943978,2.96134454 44.994958,3.41064426 44.994958,3.94397759 C44.994958,4.53221289 45.2212885,5.02072829 45.6784314,5.40392157 C46.0761905,5.75686275 46.7988796,6.14117647 47.8487395,6.55462185 C49.1327731,7.07114846 50.0728291,7.67507003 50.6789916,8.36638655 C51.2829132,9.05434174 51.5843137,9.91820728 51.5843137,10.9478992 L51.5843137,10.9478992 Z"></path><path d="M59.4823529,6.17142857 L56.8492997,6.17142857 L56.8492997,11.3915966 C56.8492997,12.7193277 57.3131653,13.3815126 58.2431373,13.3815126 C58.670028,13.3815126 59.0240896,13.3456583 59.3042017,13.2705882 L59.3703081,15.0845938 C58.8997199,15.2605042 58.280112,15.3490196 57.512605,15.3490196 C56.5691877,15.3490196 55.8319328,15.0610644 55.2997199,14.4851541 C54.7686275,13.9092437 54.5030812,12.9445378 54.5030812,11.5865546 L54.5030812,6.16694678 L52.9344538,6.16694678 L52.9344538,4.37422969 L54.5030812,4.37422969 L54.5030812,2.40560224 L56.8492997,1.69747899 L56.8492997,4.37422969 L59.4823529,4.37422969 L59.4823529,6.17142857 L59.4823529,6.17142857 Z"></path><path d="M71.362465,9.66610644 C71.362465,11.3187675 70.8896359,12.6756303 69.945098,13.7366947 C68.9557423,14.8291317 67.642577,15.3736695 66.0056022,15.3736695 C64.4280112,15.3736695 63.1719888,14.8504202 62.2352941,13.805042 C61.2985994,12.757423 60.8302521,11.437535 60.8302521,9.84537815 C60.8302521,8.17927171 61.3131653,6.81456583 62.2789916,5.7535014 C63.242577,4.69131653 64.5445378,4.16022409 66.1815126,4.16022409 C67.7591036,4.16022409 69.0285714,4.68459384 69.9865546,5.73109244 C70.9053221,6.74621849 71.362465,8.05714286 71.362465,9.66610644 L71.362465,9.66610644 Z M68.8840336,9.74229692 C68.8840336,8.75070028 68.6733894,7.90028011 68.2442577,7.19215686 C67.7434174,6.33277311 67.0263305,5.9070028 66.0997199,5.9070028 C65.1394958,5.9070028 64.4089636,6.33613445 63.9092437,7.19215686 C63.4789916,7.90252101 63.2683473,8.76638655 63.2683473,9.78823529 C63.2683473,10.7798319 63.4789916,11.6302521 63.9092437,12.3372549 C64.4257703,13.1955182 65.1462185,13.6235294 66.0795518,13.6235294 C66.9904762,13.6235294 67.7064426,13.1854342 68.2240896,12.3148459 C68.6621849,11.5943978 68.8840336,10.7338936 68.8840336,9.74229692 L68.8840336,9.74229692 Z"></path><path d="M79.1271709,6.47955182 C78.8907563,6.43585434 78.6386555,6.41344538 78.3742297,6.41344538 C77.5338936,6.41344538 76.8840336,6.72941176 76.4268908,7.36582633 C76.0291317,7.92605042 75.8296919,8.63417367 75.8296919,9.48907563 L75.8296919,15.1305322 L73.4420168,15.1305322 L73.4644258,7.76470588 C73.4644258,6.52661064 73.4352941,5.39719888 73.3747899,4.37983193 L75.4554622,4.37983193 L75.5428571,6.43697479 L75.6089636,6.43697479 C75.8621849,5.72997199 76.2588235,5.15966387 76.8033613,4.73277311 C77.3355742,4.34845938 77.9103641,4.15686275 78.529972,4.15686275 C78.7507003,4.15686275 78.9501401,4.17254902 79.1271709,4.20056022 L79.1271709,6.47955182 L79.1271709,6.47955182 Z"></path><path d="M89.8106443,9.24593838 C89.8106443,9.67394958 89.7826331,10.0347339 89.7232493,10.3294118 L82.5568627,10.3294118 C82.5848739,11.3915966 82.9310924,12.205042 83.5966387,12.7652661 C84.2005602,13.264986 84.9815126,13.5159664 85.9417367,13.5159664 C87.0016807,13.5159664 87.9719888,13.3478992 88.8414566,13.0084034 L89.2156863,14.6655462 C88.1983193,15.1092437 86.9983193,15.329972 85.6112045,15.329972 C83.9439776,15.329972 82.6352941,14.8392157 81.6817927,13.859944 C80.7316527,12.8795518 80.2565826,11.5619048 80.2565826,9.91148459 C80.2565826,8.29131653 80.7002801,6.94117647 81.5865546,5.86442577 C82.5142857,4.71484594 83.7669468,4.14005602 85.3445378,4.14005602 C86.8941176,4.14005602 88.0683473,4.71484594 88.864986,5.86442577 C89.4935574,6.77535014 89.8106443,7.9047619 89.8106443,9.24593838 L89.8106443,9.24593838 Z M87.5327731,8.62633053 C87.5484594,7.91708683 87.3927171,7.30644258 87.0689076,6.78991597 C86.6554622,6.12436975 86.0201681,5.79271709 85.1652661,5.79271709 C84.3843137,5.79271709 83.7490196,6.11652661 83.2638655,6.76638655 C82.8672269,7.28291317 82.6308123,7.90364146 82.5568627,8.62408964 L87.5327731,8.62633053 L87.5327731,8.62633053 L87.5327731,8.62633053 Z"></path></g><g transform="translate(46.918768, 5.462185)" fill="#8A8A8A" id="Shape"><path d="M6.77871148,4.49187675 C6.77871148,5.81064426 6.38319328,6.80336134 5.59327731,7.47002801 C4.86162465,8.08515406 3.82184874,8.39327731 2.47507003,8.39327731 C1.80728291,8.39327731 1.23585434,8.36414566 0.757422969,8.30588235 L0.757422969,1.10028011 C1.38151261,0.999439776 2.05378151,0.94789916 2.77983193,0.94789916 C4.0627451,0.94789916 5.02969188,1.22689076 5.68179272,1.78487395 C6.41232493,2.41568627 6.77871148,3.31764706 6.77871148,4.49187675 L6.77871148,4.49187675 Z M5.54061625,4.52436975 C5.54061625,3.66946779 5.31428571,3.0140056 4.86162465,2.55686275 C4.40896359,2.10084034 3.74789916,1.87226891 2.87731092,1.87226891 C2.50756303,1.87226891 2.19271709,1.89691877 1.93165266,1.94845938 L1.93165266,7.42633053 C2.07619048,7.4487395 2.34061625,7.45882353 2.72492997,7.45882353 C3.62352941,7.45882353 4.31708683,7.20896359 4.80560224,6.7092437 C5.29411765,6.20952381 5.54061625,5.48123249 5.54061625,4.52436975 L5.54061625,4.52436975 Z"></path><path d="M13.3434174,5.64369748 C13.3434174,6.45602241 13.1114846,7.12156863 12.647619,7.64369748 C12.1613445,8.18039216 11.5170868,8.44817927 10.712605,8.44817927 C9.9372549,8.44817927 9.31988796,8.19159664 8.85938375,7.67619048 C8.4,7.16190476 8.17030812,6.51316527 8.17030812,5.73109244 C8.17030812,4.91316527 8.40672269,4.24201681 8.88179272,3.7210084 C9.35686275,3.2 9.99551821,2.93893557 10.8,2.93893557 C11.5753501,2.93893557 12.1983193,3.19551821 12.670028,3.70980392 C13.1182073,4.20952381 13.3434174,4.85490196 13.3434174,5.64369748 L13.3434174,5.64369748 Z M12.1254902,5.68179272 C12.1254902,5.19439776 12.0201681,4.77647059 11.8106443,4.4280112 C11.5641457,4.00672269 11.2134454,3.79607843 10.757423,3.79607843 C10.2857143,3.79607843 9.92717087,4.00672269 9.68067227,4.4280112 C9.47002801,4.77647059 9.36582633,5.20112045 9.36582633,5.70308123 C9.36582633,6.19047619 9.47114846,6.60840336 9.68067227,6.95686275 C9.93501401,7.37815126 10.2890756,7.58879552 10.7462185,7.58879552 C11.1943978,7.58879552 11.5462185,7.37478992 11.7994398,6.94565826 C12.0168067,6.59047619 12.1254902,6.16918768 12.1254902,5.68179272 L12.1254902,5.68179272 Z"></path><path d="M22.1456583,3.0464986 L20.4929972,8.32829132 L19.4173669,8.32829132 L18.7327731,6.03473389 C18.5591036,5.46218487 18.4179272,4.8929972 18.3081232,4.32829132 L18.2868347,4.32829132 C18.1848739,4.90868347 18.0436975,5.4767507 17.8621849,6.03473389 L17.135014,8.32829132 L16.0470588,8.32829132 L14.4929972,3.0464986 L15.6997199,3.0464986 L16.2969188,5.55742297 C16.4414566,6.1512605 16.5602241,6.71708683 16.6554622,7.25266106 L16.6767507,7.25266106 C16.7641457,6.81120448 16.9086835,6.2487395 17.112605,5.56862745 L17.8621849,3.04761905 L18.8190476,3.04761905 L19.5372549,5.51484594 C19.7109244,6.11652661 19.8521008,6.69579832 19.9607843,7.25378151 L19.9932773,7.25378151 C20.0728291,6.71036415 20.1927171,6.13109244 20.3518207,5.51484594 L20.9927171,3.04761905 L22.1456583,3.0464986 L22.1456583,3.0464986 L22.1456583,3.0464986 Z"></path><path d="M28.2330532,8.32829132 L27.0588235,8.32829132 L27.0588235,5.30308123 C27.0588235,4.37086835 26.7047619,3.9047619 25.9943978,3.9047619 C25.6459384,3.9047619 25.3647059,4.032493 25.1462185,4.28907563 C24.929972,4.54565826 24.8201681,4.84817927 24.8201681,5.19439776 L24.8201681,8.32717087 L23.6459384,8.32717087 L23.6459384,4.5557423 C23.6459384,4.09187675 23.6313725,3.58879552 23.6033613,3.0442577 L24.6352941,3.0442577 L24.6901961,3.87002801 L24.7226891,3.87002801 C24.8593838,3.61344538 25.0633053,3.40168067 25.3310924,3.232493 C25.6492997,3.03529412 26.0056022,2.93557423 26.3955182,2.93557423 C26.8885154,2.93557423 27.2985994,3.09467787 27.6246499,3.4140056 C28.0313725,3.80504202 28.2330532,4.38879552 28.2330532,5.16414566 L28.2330532,8.32829132 L28.2330532,8.32829132 Z"></path><polygon points="31.4711485 8.32829132 30.2980392 8.32829132 30.2980392 0.622969188 31.4711485 0.622969188"></polygon><path d="M38.3843137,5.64369748 C38.3843137,6.45602241 38.152381,7.12156863 37.6885154,7.64369748 C37.2022409,8.18039216 36.5568627,8.44817927 35.7535014,8.44817927 C34.9770308,8.44817927 34.3596639,8.19159664 33.9002801,7.67619048 C33.4408964,7.16190476 33.2112045,6.51316527 33.2112045,5.73109244 C33.2112045,4.91316527 33.447619,4.24201681 33.9226891,3.7210084 C34.3988796,3.2 35.0364146,2.93893557 35.8397759,2.93893557 C36.6162465,2.93893557 37.2380952,3.19551821 37.7120448,3.70980392 C38.1591036,4.20952381 38.3843137,4.85490196 38.3843137,5.64369748 L38.3843137,5.64369748 Z M37.1652661,5.68179272 C37.1652661,5.19439776 37.059944,4.77647059 36.8504202,4.4280112 C36.605042,4.00672269 36.2532213,3.79607843 35.7994398,3.79607843 C35.3254902,3.79607843 34.9680672,4.00672269 34.7226891,4.4280112 C34.5120448,4.77647059 34.4078431,5.20112045 34.4078431,5.70308123 C34.4078431,6.19047619 34.5131653,6.60840336 34.7226891,6.95686275 C34.9770308,7.37815126 35.3310924,7.58879552 35.7871148,7.58879552 C36.2352941,7.58879552 36.5859944,7.37478992 36.8392157,6.94565826 C37.0577031,6.59047619 37.1652661,6.16918768 37.1652661,5.68179272 L37.1652661,5.68179272 Z"></path><path d="M44.0672269,8.32829132 L43.0128852,8.32829132 L42.9254902,7.71988796 L42.8941176,7.71988796 C42.5333333,8.20504202 42.0190476,8.44817927 41.3501401,8.44817927 C40.8526611,8.44817927 40.4481793,8.28795518 40.1456583,7.9697479 C39.870028,7.68067227 39.7322129,7.3210084 39.7322129,6.89411765 C39.7322129,6.2487395 40.0011204,5.75686275 40.5434174,5.4162465 C41.0823529,5.07563025 41.8420168,4.90868347 42.8201681,4.91652661 L42.8201681,4.81792717 C42.8201681,4.12212885 42.4560224,3.77478992 41.7232493,3.77478992 C41.2022409,3.77478992 40.7428571,3.90588235 40.3462185,4.16582633 L40.1064426,3.39495798 C40.5971989,3.09131653 41.2033613,2.93893557 41.9182073,2.93893557 C43.2985994,2.93893557 43.9910364,3.66722689 43.9910364,5.12380952 L43.9910364,7.06890756 C43.9910364,7.59663866 44.0168067,8.01680672 44.0672269,8.32829132 L44.0672269,8.32829132 Z M42.8481793,6.51316527 L42.8481793,5.69859944 C41.5529412,5.67619048 40.9053221,6.03137255 40.9053221,6.76302521 C40.9053221,7.03865546 40.9792717,7.24481793 41.1305322,7.38263305 C41.2817927,7.52044818 41.4745098,7.58879552 41.7042017,7.58879552 C41.9619048,7.58879552 42.2028011,7.5070028 42.422409,7.34453782 C42.6431373,7.18095238 42.7787115,6.97366947 42.8291317,6.71932773 C42.8414566,6.66218487 42.8481793,6.59271709 42.8481793,6.51316527 L42.8481793,6.51316527 Z"></path><path d="M50.7394958,8.32829132 L49.697479,8.32829132 L49.642577,7.48011204 L49.610084,7.48011204 C49.2773109,8.1254902 48.7103641,8.44817927 47.9137255,8.44817927 C47.2773109,8.44817927 46.7473389,8.19831933 46.3271709,7.69859944 C45.9070028,7.19887955 45.697479,6.55014006 45.697479,5.7535014 C45.697479,4.89859944 45.92493,4.20616246 46.3820728,3.67731092 C46.8246499,3.18431373 47.3669468,2.93781513 48.0123249,2.93781513 C48.7215686,2.93781513 49.2168067,3.17647059 49.5002801,3.65490196 L49.5226891,3.65490196 L49.5226891,0.622969188 L50.6980392,0.622969188 L50.6980392,6.90532213 C50.6980392,7.41960784 50.7114846,7.89355742 50.7394958,8.32829132 L50.7394958,8.32829132 Z M49.5226891,6.10084034 L49.5226891,5.22016807 C49.5226891,5.06778711 49.5114846,4.94453782 49.4901961,4.85042017 C49.4240896,4.56806723 49.2817927,4.33053221 49.0655462,4.13893557 C48.8470588,3.94733894 48.5837535,3.85098039 48.280112,3.85098039 C47.8420168,3.85098039 47.4991597,4.02464986 47.2470588,4.37310924 C46.9971989,4.72156863 46.8705882,5.16638655 46.8705882,5.70980392 C46.8705882,6.23193277 46.9904762,6.65546218 47.2313725,6.98151261 C47.4857143,7.32885154 47.8285714,7.50252101 48.2577031,7.50252101 C48.6431373,7.50252101 48.9512605,7.35798319 49.1854342,7.06778711 C49.4117647,6.8 49.5226891,6.47731092 49.5226891,6.10084034 L49.5226891,6.10084034 Z"></path><path d="M60.7820728,5.64369748 C60.7820728,6.45602241 60.5501401,7.12156863 60.0862745,7.64369748 C59.6,8.18039216 58.9568627,8.44817927 58.1512605,8.44817927 C57.3770308,8.44817927 56.7596639,8.19159664 56.2980392,7.67619048 C55.8386555,7.16190476 55.6089636,6.51316527 55.6089636,5.73109244 C55.6089636,4.91316527 55.8453782,4.24201681 56.3204482,3.7210084 C56.7955182,3.2 57.4341737,2.93893557 58.2397759,2.93893557 C59.0140056,2.93893557 59.6380952,3.19551821 60.1086835,3.70980392 C60.5568627,4.20952381 60.7820728,4.85490196 60.7820728,5.64369748 L60.7820728,5.64369748 Z M59.5652661,5.68179272 C59.5652661,5.19439776 59.459944,4.77647059 59.2504202,4.4280112 C59.0028011,4.00672269 58.6532213,3.79607843 58.1960784,3.79607843 C57.7254902,3.79607843 57.3680672,4.00672269 57.1193277,4.4280112 C56.9086835,4.77647059 56.8056022,5.20112045 56.8056022,5.70308123 C56.8056022,6.19047619 56.9109244,6.60840336 57.1193277,6.95686275 C57.3747899,7.37815126 57.7277311,7.58879552 58.1848739,7.58879552 C58.6330532,7.58879552 58.9859944,7.37478992 59.2392157,6.94565826 C59.4554622,6.59047619 59.5652661,6.16918768 59.5652661,5.68179272 L59.5652661,5.68179272 Z"></path><path d="M67.0957983,8.32829132 L65.9226891,8.32829132 L65.9226891,5.30308123 C65.9226891,4.37086835 65.5686275,3.9047619 64.8571429,3.9047619 C64.5086835,3.9047619 64.227451,4.032493 64.010084,4.28907563 C63.7938375,4.54565826 63.6840336,4.84817927 63.6840336,5.19439776 L63.6840336,8.32717087 L62.5086835,8.32717087 L62.5086835,4.5557423 C62.5086835,4.09187675 62.4952381,3.58879552 62.4672269,3.0442577 L63.4980392,3.0442577 L63.5529412,3.87002801 L63.5854342,3.87002801 C63.7232493,3.61344538 63.9271709,3.40168067 64.1938375,3.232493 C64.5131653,3.03529412 64.8683473,2.93557423 65.2593838,2.93557423 C65.7512605,2.93557423 66.1613445,3.09467787 66.487395,3.4140056 C66.8941176,3.80504202 67.0957983,4.38879552 67.0957983,5.16414566 L67.0957983,8.32829132 L67.0957983,8.32829132 Z"></path><path d="M74.9983193,3.92605042 L73.7064426,3.92605042 L73.7064426,6.49187675 C73.7064426,7.14397759 73.935014,7.47002801 74.389916,7.47002801 C74.6005602,7.47002801 74.7753501,7.45210084 74.9131653,7.41512605 L74.9434174,8.30588235 C74.7114846,8.39327731 74.4067227,8.43697479 74.032493,8.43697479 C73.5686275,8.43697479 73.2078431,8.29579832 72.9456583,8.01344538 C72.6834734,7.73109244 72.5535014,7.25602241 72.5535014,6.58935574 L72.5535014,3.92605042 L71.7815126,3.92605042 L71.7815126,3.0464986 L72.5535014,3.0464986 L72.5535014,2.07843137 L73.7042017,1.73109244 L73.7042017,3.04537815 L74.9971989,3.04537815 L74.9971989,3.92605042 L74.9983193,3.92605042 L74.9983193,3.92605042 Z"></path><path d="M81.2145658,8.32829132 L80.0392157,8.32829132 L80.0392157,5.3254902 C80.0392157,4.37871148 79.6851541,3.9047619 78.9759104,3.9047619 C78.4313725,3.9047619 78.0593838,4.17927171 77.8554622,4.72829132 C77.8207283,4.84481793 77.8005602,4.98487395 77.8005602,5.15070028 L77.8005602,8.32717087 L76.627451,8.32717087 L76.627451,0.622969188 L77.8005602,0.622969188 L77.8005602,3.80616246 L77.8229692,3.80616246 C78.1927171,3.22689076 78.7226891,2.93781513 79.4095238,2.93781513 C79.8957983,2.93781513 80.2980392,3.09691877 80.6173669,3.4162465 C81.0151261,3.8140056 81.2145658,4.40560224 81.2145658,5.18767507 L81.2145658,8.32829132 L81.2145658,8.32829132 Z"></path><path d="M87.6268908,5.43753501 C87.6268908,5.64817927 87.6112045,5.82521008 87.5831933,5.9697479 L84.0616246,5.9697479 C84.0773109,6.49187675 84.2453782,6.88963585 84.5714286,7.16526611 C84.8694678,7.41176471 85.2526611,7.53501401 85.7232493,7.53501401 C86.2453782,7.53501401 86.7204482,7.45210084 87.1473389,7.28515406 L87.3310924,8.10084034 C86.8313725,8.31820728 86.2408964,8.42689076 85.5585434,8.42689076 C84.7417367,8.42689076 84.0963585,8.1859944 83.6302521,7.70420168 C83.1619048,7.22240896 82.929972,6.57591036 82.929972,5.76470588 C82.929972,4.96806723 83.1462185,4.3047619 83.5820728,3.77591036 C84.0369748,3.21120448 84.6521008,2.92885154 85.4285714,2.92885154 C86.1882353,2.92885154 86.7652661,3.21120448 87.1551821,3.77591036 C87.4711485,4.22408964 87.6268908,4.77871148 87.6268908,5.43753501 L87.6268908,5.43753501 Z M86.5064426,5.13389356 C86.5154062,4.78543417 86.4380952,4.48515406 86.2789916,4.23193277 C86.07507,3.90588235 85.7647059,3.74229692 85.3445378,3.74229692 C84.9613445,3.74229692 84.6487395,3.90140056 84.410084,4.22072829 C84.2151261,4.47507003 84.0997199,4.77871148 84.0616246,5.13389356 L86.5064426,5.13389356 L86.5064426,5.13389356 Z"></path></g></g></g></g></g></svg>